<svg width="350" height="135" viewBox="0 0 350 135" fill="none" xmlns="http://www.w3.org/2000/svg">
<rect x="3" width="344" height="135" rx="11" fill="#ED1B23"/>
<path d="M39.5867 28.3314C43.1322 28.3314 46.1976 28.9962 48.7828 30.3258C51.3681 31.6553 53.584 33.4281 55.4306 35.644C57.2773 37.86 58.7915 40.4452 59.9733 43.3998C61.1551 46.2805 62.0785 49.272 62.7432 52.3743C63.408 55.4766 63.8512 58.6159 64.0728 61.7921C64.3683 64.8944 64.516 67.7751 64.516 70.4342C64.516 76.3434 63.8881 81.3292 62.6324 85.3918C61.4506 89.4543 59.8995 92.7782 57.979 95.3635C56.1324 97.9488 54.175 99.98 52.1067 101.457C48.4135 104.043 44.2402 105.52 39.5867 105.889H25.9587L26.1803 28.3314H39.5867ZM39.8083 94.1447C39.8083 94.1447 40.0668 94.1078 40.5839 94.0339C41.1009 93.9601 41.7657 93.7016 42.5782 93.2584C43.4646 92.7413 44.3879 91.9657 45.3481 90.9316C46.3822 89.8975 47.3055 88.4202 48.1181 86.4998C49.0044 84.5793 49.7061 82.1787 50.2232 79.298C50.8141 76.3434 51.1096 72.724 51.1096 68.4399C51.1096 67.3319 51.0726 65.8915 50.9988 64.1188C50.9249 62.3461 50.7402 60.4625 50.4448 58.4682C50.2232 56.4738 49.8539 54.4795 49.3368 52.4851C48.8198 50.4908 48.1181 48.6811 47.2317 47.0561C46.4192 45.4311 45.3851 44.1384 44.1294 43.1782C42.8737 42.1441 41.3595 41.627 39.5867 41.627L39.8083 94.1447ZM68.0719 106V28.4422H94.1091V42.181H82.3647V59.6869H94.2199V74.0905H81.6999V91.5964H94.3307V106H68.0719ZM98.2415 106V28.4422H115.969L122.395 68.3291L128.711 28.4422H146.771V106.111H132.367V68.6615L126.052 106H118.628L112.313 68.9939V106H98.2415ZM178.026 28.4422L189.771 106H175.7L174.149 94.0339H163.29L161.629 106H147.779L159.413 28.4422H178.026ZM172.708 81.6247L168.72 49.0504L164.952 81.6247H172.708ZM206.171 28.4422C208.757 28.4422 211.194 28.8485 213.484 29.661C215.848 30.4735 217.953 31.7661 219.799 33.5389C221.646 35.2378 223.16 37.4537 224.342 40.1867C225.598 42.9197 226.41 46.2436 226.78 50.1584C227.297 54.9596 227.149 58.9852 226.336 62.2353C225.598 65.4114 224.675 67.9598 223.567 69.8802C222.311 72.2439 220.797 74.0905 219.024 75.4201L228.22 106H214.038L207.279 79.9627L204.177 80.5167V106H190.217L190.328 28.4422H206.171ZM204.177 66.7779C205.876 66.6302 207.279 66.2239 208.387 65.5592C209.495 64.8205 210.419 63.8972 211.157 62.7892C211.896 61.6813 212.413 60.4256 212.708 59.0221C213.004 57.6187 213.152 56.1784 213.152 54.7011C213.152 53.1499 213.004 51.6357 212.708 50.1584C212.413 48.6072 211.933 47.2407 211.268 46.0589C210.603 44.8032 209.68 43.806 208.498 43.0674C207.39 42.3288 205.95 41.9594 204.177 41.9594V66.7779ZM238.824 28.4422L245.029 75.1985L251.566 28.4422H265.527L253.228 106H236.83L224.421 28.4422H238.824ZM266.403 106V28.4422H292.44V42.181H280.695V59.6869H292.551V74.0905H280.031V91.5964H292.661V106H266.403ZM310.754 28.3314V92.0396H322.72V106.111H297.015V28.4422L310.754 28.3314Z" fill="white"/>
</svg>
