<svg width="344" height="135" viewBox="0 0 344 135" fill="none" xmlns="http://www.w3.org/2000/svg">
<path d="M0 11C0 4.92486 4.92487 0 11 0H333C339.075 0 344 4.92487 344 11V124C344 130.075 339.075 135 333 135H11C4.92487 135 0 130.075 0 124V11Z" fill="#0D80BF"/>
<mask id="mask0_10_25" style="mask-type:alpha" maskUnits="userSpaceOnUse" x="0" y="0" width="344" height="135">
<path d="M0 11C0 4.92486 4.92487 0 11 0H333C339.075 0 344 4.92487 344 11V124C344 130.075 339.075 135 333 135H11C4.92487 135 0 130.075 0 124V11Z" fill="#D9D9D9"/>
</mask>
<g mask="url(#mask0_10_25)">
<path d="M318.174 66.4584C318.174 146.839 253.216 212 173.087 212C92.9576 212 27.9999 146.839 27.9999 66.4584C27.9999 -13.922 92.9576 -79.0831 173.087 -79.0831C253.216 -79.0831 318.174 -13.922 318.174 66.4584Z" fill="#1F1A17"/>
<path d="M311.495 66.4584C311.495 143.135 249.524 205.3 173.087 205.3C96.6501 205.3 34.6786 143.135 34.6786 66.4584C34.6786 -10.2339 96.6501 -72.3834 173.087 -72.3834C249.524 -72.3834 311.495 -10.2339 311.495 66.4584Z" fill="white"/>
<path d="M133.721 191.385C146.147 195.315 159.36 197.457 173.087 197.457C186.798 197.457 200.027 195.315 212.437 191.385C201.327 182.785 187.745 177.696 173.087 177.696C158.413 177.696 144.831 182.785 133.721 191.385Z" fill="#0D80BF"/>
<path d="M212.437 -58.4846C200.027 -62.4142 186.798 -64.5401 173.087 -64.5401C159.36 -64.5401 146.147 -62.4142 133.721 -58.4846C144.831 -49.8683 158.413 -44.7791 173.087 -44.7791C187.745 -44.7791 201.327 -49.8683 212.437 -58.4846Z" fill="#0D80BF"/>
<path d="M223.178 15.0673C242.331 8.01331 259.574 -2.92204 273.911 -16.8046C259.558 -34.2786 240.774 -47.9196 219.293 -56.0849C212.068 -49.8522 203.752 -45.0529 194.697 -42.0574C209.339 -31.4119 220.16 -10.2982 223.178 15.0673Z" fill="#0D80BF"/>
<path d="M151.461 -42.0574C142.422 -45.0529 134.09 -49.8522 126.881 -56.0849C105.4 -47.9196 86.6159 -34.2786 72.2629 -16.8046C86.5838 -2.92204 103.843 8.01331 122.98 15.0673C126.014 -10.2982 136.835 -31.4119 151.461 -42.0574Z" fill="#0D80BF"/>
<path d="M122.98 117.834C103.843 124.888 86.5838 135.839 72.2629 149.722C86.6159 167.18 105.4 180.837 126.881 188.986C134.09 182.753 142.422 177.954 151.461 174.958C136.835 164.313 126.014 143.199 122.98 117.834Z" fill="#0D80BF"/>
<path d="M223.178 117.834C220.16 143.199 209.339 164.313 194.697 174.958C203.752 177.954 212.068 182.753 219.293 188.986C240.774 180.837 259.558 167.18 273.911 149.722C259.574 135.839 242.331 124.888 223.178 117.834Z" fill="#0D80BF"/>
<path d="M277.748 144.826C294.028 122.971 303.677 95.8341 303.677 66.4584C303.677 37.0667 294.028 9.94572 277.748 -11.9089C250.664 14.1169 213.738 30.1898 173.087 30.1898C132.42 30.1898 95.5103 14.1169 68.4258 -11.9089C52.1463 9.94572 42.4974 37.0667 42.4974 66.4584C42.4974 95.8341 52.1463 122.971 68.4258 144.826C95.5103 118.8 132.42 102.711 173.087 102.711C213.738 102.711 250.664 118.8 277.748 144.826Z" fill="#1F1A17"/>
<path d="M196.655 -0.941223C198.084 -1.40826 199.385 -2.88992 199.385 -5.25737C199.385 -6.69072 198.999 -7.86639 198.084 -8.78439C197.169 -9.70238 195.997 -10.0889 194.311 -10.0889C190.94 -10.0889 189.736 -8.15629 188.708 -6.81956L191.052 -5.25737C192.08 -6.56187 193.156 -6.94841 193.798 -6.94841C194.954 -6.94841 195.997 -5.98212 195.997 -4.74202C195.997 -3.82404 195.676 -3.21204 195.098 -2.64836C194.617 -2.19742 193.91 -1.85921 192.883 -1.85921H191.967V0.878662H193.268C194.311 0.878662 195.114 1.12024 195.612 1.79665C196.013 2.34422 196.399 2.98842 196.399 4.27682C196.399 6.72479 194.954 7.14352 193.91 7.14352C193.236 7.14352 192.754 7.0791 192.353 6.757C191.855 6.35437 191.438 5.71017 191.181 5.06598L188.195 6.24164C188.58 7.54614 189.238 8.59299 190.282 9.23718C191.181 9.89749 192.481 10.284 194.055 10.284C195.74 10.284 197.169 9.76865 198.213 8.72182C199.256 7.54614 199.786 6.11279 199.786 4.14798C199.786 2.71463 199.305 -0.10376 196.655 -0.941223Z" fill="#1F1A17"/>
<path d="M171.257 -1.47269C171.257 2.312 170.615 5.32365 169.443 7.28847C168.527 8.85066 167.227 9.88138 165.525 10.284C165.108 10.3806 164.546 10.4129 164.096 10.4129C163.037 10.4129 162.138 10.1391 160.982 9.36603L162.154 6.757C162.764 7.04689 163.567 7.28847 164.225 7.28847C165.028 7.28847 165.782 6.90195 166.44 6.11279C167.099 5.32364 167.484 4.01913 167.741 2.312C167.018 2.90788 166.569 3.48767 164.883 3.48767C163.454 3.48767 162.282 2.97232 161.367 1.79665C160.452 0.620972 160.067 -0.941223 160.067 -2.90604C160.067 -5.25737 160.58 -6.94841 161.495 -8.12408C162.411 -9.29974 163.84 -9.96006 165.525 -10.0889H165.67C167.612 -10.0889 169.041 -9.29974 169.956 -7.86639C170.871 -6.43304 171.257 -4.33939 171.257 -1.47269ZM165.525 0.492126C166.36 0.492126 166.826 0.0572968 167.099 -0.554703C167.388 -1.1989 167.484 -2.11688 167.484 -3.29256C167.484 -4.46823 167.388 -5.45064 167.099 -6.04652C166.745 -6.72293 166.184 -6.94841 165.525 -6.94841C164.995 -6.94841 164.385 -6.64241 164.096 -6.04652C163.743 -5.27348 163.583 -4.22665 163.583 -3.29256C163.583 -1.40826 164.128 0.492126 165.525 0.492126Z" fill="#1F1A17"/>
<path d="M146.645 -8.12404V-5.51501L150.161 -6.56184V6.75705H146.388V9.76869H157.064V6.75705H153.548V-9.70234L146.645 -8.12404Z" fill="#1F1A17"/>
<path d="M195.355 126.804H191.309L186.493 146.388H189.752L190.924 141.556H195.483L196.527 146.388H200.171L195.355 126.804ZM191.582 138.432L192.754 132.682L193.172 130.46H193.22L193.621 132.554L194.825 138.432H191.582Z" fill="#1F1A17"/>
<path d="M146.003 127.062V146.388H149.647V138.029H154.592V134.905H149.647V130.202H156.807V127.062H146.003Z" fill="#1F1A17"/>
<path d="M173.087 -135L178.867 -117.155H197.554L182.431 -106.14L188.211 -88.3113L173.087 -99.3272L157.963 -88.3113L163.743 -106.14L148.619 -117.155H167.307L173.087 -135Z" fill="#ABAAAA"/>
<path d="M98.1111 -122.035L103.891 -104.207H122.579L107.455 -93.175L113.235 -75.3467L98.1111 -86.3625L82.9875 -75.3467L88.7672 -93.175L73.6436 -104.207H92.3474L98.1111 -122.035Z" fill="#93754F"/>
<path d="M248.047 -122.035L253.827 -104.207H272.514L257.407 -93.175L263.17 -75.3467L248.047 -86.3625L232.939 -75.3467L238.703 -93.175L223.595 -104.207H242.283L248.047 -122.035Z" fill="#F8C300"/>
<path d="M167.227 136.081C168.399 136.467 169.314 136.983 169.956 137.901C170.615 138.819 170.871 139.865 170.871 141.17C170.871 142.861 170.374 144.198 169.186 145.083C168.062 145.921 166.601 146.388 165.092 146.388H159.537V127.062H165.268C168.062 127.062 170.213 128.769 170.213 131.765C170.213 132.811 169.956 133.729 169.443 134.502C168.945 135.259 168.142 135.759 167.227 136.081ZM164.353 129.945H163.181V134.905H164.353C165.862 134.905 166.697 133.746 166.697 132.296C166.697 130.412 165.862 129.945 164.353 129.945ZM167.227 140.783C167.227 139.543 166.858 138.835 166.376 138.384C165.862 137.917 164.883 137.772 164.225 137.772H163.181V143.521H165.092C166.023 143.521 167.227 142.941 167.227 140.783Z" fill="#1F1A17"/>
<path d="M174.387 127.062V146.388H178.032V139.076H179.718C181.291 138.947 182.591 138.432 183.635 137.514C184.807 136.338 185.321 134.905 185.321 132.94C185.321 130.975 184.807 129.542 183.763 128.495C182.848 127.577 181.419 127.062 179.718 127.062H174.387ZM181.5 132.94C181.5 135.179 180.488 136.338 178.947 136.338H178.032V129.945H178.947C180.28 129.945 181.5 130.541 181.5 132.94Z" fill="#1F1A17"/>
<path d="M175.688 -7.35104C174.644 -5.64391 174.131 -3.03488 174.131 0.234451C174.131 3.48767 174.644 5.96785 175.688 7.67499C176.731 9.36601 178.16 10.284 180.119 10.284C182.078 10.284 183.507 9.36601 184.55 7.67499C185.578 5.96785 186.107 3.48767 186.107 0.234451C186.107 -3.03488 185.578 -5.64391 184.55 -7.35104C183.507 -9.17091 182.078 -10.0889 180.119 -10.0889C178.16 -10.0889 176.731 -9.17091 175.688 -7.35104ZM182.463 0.234451C182.463 2.65021 182.335 4.59892 181.933 5.64575C181.548 6.64427 181.018 7.14352 180.119 7.14352C179.204 7.14352 178.674 6.64427 178.289 5.64575C177.903 4.59892 177.775 2.65021 177.775 0.234451C177.775 -2.29404 177.903 -4.30717 178.289 -5.38622C178.674 -6.43304 179.204 -6.94841 180.119 -6.94841C181.034 -6.94841 181.564 -6.43304 181.933 -5.38622C182.335 -4.30717 182.463 -2.29404 182.463 0.234451Z" fill="#1F1A17"/>
<path d="M79.1794 82.8757H73.5635L73.417 79.6494C71.8543 82.3869 68.1429 84 63.699 84C54.7135 84 48.9999 75.6409 48.9999 66.5973C48.9999 57.016 54.4693 49.3412 64.9687 49.3412C72.6845 49.3412 78.6422 53.9363 79.1306 60.4379H72.2938C71.9519 57.4071 68.6801 54.9628 64.9687 54.9628C59.5481 54.9628 55.9343 59.1669 55.9343 66.8906C55.9343 72.219 58.6202 78.2806 64.9198 78.2806C69.3637 78.2806 72.831 74.9076 72.831 70.8502H65.6523V65.4241H79.1794V82.8757Z" fill="white"/>
<path d="M96.8673 56.0383H88.126V64.6908H96.6231C100.237 64.6908 101.604 62.8821 101.604 60.389C101.604 57.847 100.237 56.0383 96.8673 56.0383ZM107.074 82.8757H100.432V74.5165C100.432 71.3879 99.2602 70.1658 95.3534 70.1658H88.126V82.8757H81.5334V50.4166H97.9905C103.997 50.4166 107.953 54.4251 107.953 59.8024C107.953 63.2732 106.243 66.2062 103.118 67.3306C105.999 68.2594 107.074 69.8725 107.074 73.6855V82.8757Z" fill="white"/>
<path d="M134.378 82.8757H109.766V50.4166H133.597V56.0872H116.358V63.0287H132.229V68.7482H116.358V77.1074H134.378V82.8757ZM128.762 47.0436L122.169 41.2753L115.577 47.0436L113.331 44.5505L119.581 38H124.758L131.008 44.5505L128.762 47.0436Z" fill="white"/>
<path d="M167.206 82.8757H160.857V60.6334L154.802 82.8757H148.063L142.056 60.7312V82.8757H135.756V50.4166H145.719L151.579 74.2232L157.439 50.4166H167.206V82.8757Z" fill="white"/>
<path d="M176.499 82.8757H169.711V50.4166H176.499V82.8757Z" fill="white"/>
<path d="M198.012 72.0723V50.4166H204.946V72.0723C204.946 79.9427 200.112 84 191.615 84C183.752 84 178.82 80.2849 178.82 72.4634V50.4166H185.706V71.8279C185.706 75.8364 187.854 78.3784 191.517 78.3784C195.863 78.3784 198.012 76.3252 198.012 72.0723Z" fill="white"/>
<path d="M222.768 56.0383H214.027V64.6908H222.524C226.137 64.6908 227.505 62.8821 227.505 60.389C227.505 57.847 226.137 56.0383 222.768 56.0383ZM232.974 82.8757H226.333V74.5165C226.333 71.3879 225.161 70.1658 221.254 70.1658H214.027V82.8757H207.434V50.4166H223.891C229.898 50.4166 233.853 54.4251 233.853 59.8024C233.853 63.2732 232.144 66.2062 229.019 67.3306C231.9 68.2594 232.974 69.8725 232.974 73.6855V82.8757Z" fill="white"/>
<path d="M242.454 82.8757H235.666V50.4166H242.454V82.8757Z" fill="white"/>
<path d="M267.629 82.8757H244.775V50.4166H251.563V76.9607H267.629V82.8757Z" fill="white"/>
<path d="M282.519 78.1828C287.403 78.1828 291.31 74.7609 291.31 67.0861C291.31 59.4113 288.184 55.3539 282.519 55.3539C276.806 55.3539 273.632 59.4113 273.632 67.0861C273.632 74.7609 276.904 78.1828 282.519 78.1828ZM282.519 84C272.557 84 266.941 77.8895 266.941 66.9395C266.941 55.9405 272.557 49.3412 282.519 49.3412C292.482 49.3412 298 55.9405 298 67.0861C298 78.2317 292.482 84 282.519 84Z" fill="white"/>
</g>
</svg>
