<svg width="36" height="36" viewBox="0 0 36 36" fill="none" xmlns="http://www.w3.org/2000/svg">
<path d="M3.41016 15.75H2.8125C1.87734 15.75 1.125 14.9977 1.125 14.0625V5.06252C1.125 4.38048 1.53281 3.76173 2.16562 3.50158C2.79844 3.24142 3.52266 3.38205 4.00781 3.8672L6.93281 6.7922C13.0922 0.710172 23.0133 0.731266 29.1375 6.86252C35.2898 13.0149 35.2898 22.9852 29.1375 29.1375C22.9852 35.2899 13.0148 35.2899 6.8625 29.1375C5.98359 28.2586 5.98359 26.8313 6.8625 25.9524C7.74141 25.0735 9.16875 25.0735 10.0477 25.9524C14.4422 30.3469 21.5648 30.3469 25.9594 25.9524C30.3539 21.5578 30.3539 14.4352 25.9594 10.0406C21.5859 5.6672 14.5195 5.64611 10.118 9.97033L13.0078 12.8672C13.493 13.3524 13.6336 14.0766 13.3734 14.7094C13.1133 15.3422 12.4945 15.75 11.8125 15.75H3.41016Z" fill="white"/>
</svg>
