<svg width="43" height="43" viewBox="0 0 43 43" fill="none" xmlns="http://www.w3.org/2000/svg">
<path d="M39.607 1.82244C37.7678 -0.0168213 34.7947 -0.0168213 32.9555 1.82244L30.4275 4.34197L38.6496 12.564L41.1775 10.0361C43.0168 8.19685 43.0168 5.2238 41.1775 3.38455L39.607 1.82244ZM14.4789 20.299C13.9666 20.8113 13.5719 21.4412 13.3451 22.1383L10.8592 29.5961C10.6156 30.3183 10.8088 31.1162 11.3463 31.6621C11.8838 32.208 12.6816 32.3928 13.4123 32.1492L20.8701 29.6633C21.5588 29.4365 22.1887 29.0418 22.7094 28.5295L36.76 14.4705L28.5295 6.24002L14.4789 20.299ZM8.0625 5.37498C3.61133 5.37498 0 8.98631 0 13.4375V34.9375C0 39.3887 3.61133 43 8.0625 43H29.5625C34.0137 43 37.625 39.3887 37.625 34.9375V26.875C37.625 25.3885 36.424 24.1875 34.9375 24.1875C33.451 24.1875 32.25 25.3885 32.25 26.875V34.9375C32.25 36.424 31.049 37.625 29.5625 37.625H8.0625C6.57598 37.625 5.375 36.424 5.375 34.9375V13.4375C5.375 11.951 6.57598 10.75 8.0625 10.75H16.125C17.6115 10.75 18.8125 9.549 18.8125 8.06248C18.8125 6.57595 17.6115 5.37498 16.125 5.37498H8.0625Z" fill="#D7C635"/>
</svg>
